<?xml version="1.0" encoding="UTF-8"?>
<!DOCTYPE svg PUBLIC "-//W3C//DTD SVG 1.1//EN" "http://www.w3.org/Graphics/SVG/1.1/DTD/svg11.dtd">
<!-- Creator: CorelDRAW 2020 (64-Bit) -->
<svg xmlns="http://www.w3.org/2000/svg" xml:space="preserve" width="0.256752in" height="0.256756in" version="1.1" style="shape-rendering:geometricPrecision; text-rendering:geometricPrecision; image-rendering:optimizeQuality; fill-rule:evenodd; clip-rule:evenodd"
viewBox="0 0 0.63 0.63"
 xmlns:xlink="http://www.w3.org/1999/xlink"
 xmlns:xodm="http://www.corel.com/coreldraw/odm/2003">
 <defs>
  <style type="text/css">
   <![CDATA[
    .fil0 {fill:white}
   ]]>
  </style>
 </defs>
 <g id="Layer_x0020_1">
  <metadata id="CorelCorpID_0Corel-Layer"/>
  <path class="fil0" d="M0.51 0.12c-0,0.02 -0.01,0.05 -0.04,0.05 -0.03,0 -0.04,-0.02 -0.04,-0.05l-0.08 0c-0,0.02 -0.01,0.05 -0.04,0.05 -0.03,0 -0.04,-0.02 -0.04,-0.05l-0.08 0c-0,0.02 -0.01,0.05 -0.04,0.05 -0.03,0 -0.04,-0.02 -0.04,-0.05l-0.01 0c-0.03,0 -0.04,0.01 -0.04,0.04l0 0.35c0,0.01 0,0.01 0,0.02 0.01,0.02 0.02,0.02 0.04,0.02l0.4 0c0.02,0 0.03,-0 0.04,-0.02 0,-0 0,-0 0,-0 0,-0 0,-0 0,-0 0,-0.01 0,-0.02 0,-0.02 0.01,-0.04 0.07,-0.03 0.07,0.01 0,0.06 -0.05,0.11 -0.1,0.11l-0.42 0c-0.05,0 -0.1,-0.05 -0.1,-0.1l0 -0.38c0,-0.03 0.01,-0.05 0.03,-0.07 0.03,-0.03 0.06,-0.03 0.09,-0.03l0 -0.01c0,-0.02 0.02,-0.04 0.04,-0.04 0.03,0 0.04,0.02 0.04,0.05l0.08 0c0,-0.02 0.01,-0.05 0.04,-0.05 0.03,0 0.04,0.02 0.04,0.05l0.08 0c0,-0.02 0.01,-0.05 0.04,-0.05 0.03,0 0.04,0.02 0.04,0.05l0.02 0c0.05,0 0.1,0.05 0.1,0.1l0 0.26c0,0.05 -0.08,0.06 -0.08,-0.01 0,-0.04 0,-0.08 0,-0.12 0,-0.03 0,-0.05 -0,-0.08 -0,-0.01 0,-0.03 -0,-0.04 -0,-0.01 -0.01,-0.03 -0.02,-0.03 -0.01,-0 -0.02,-0 -0.03,-0zm-0.28 0.24c0,-0.05 0.08,-0.05 0.08,0 0,0.05 -0.08,0.05 -0.08,0zm0.2 -0.1c0,-0.05 0.08,-0.05 0.08,0 0,0.05 -0.08,0.05 -0.08,0zm-0.1 0c0,-0.05 0.08,-0.05 0.08,0 0,0.05 -0.08,0.05 -0.08,0zm-0.1 0c0,-0.05 0.08,-0.05 0.08,0 0,0.05 -0.08,0.05 -0.08,0zm0 0.2c0,-0.05 0.08,-0.05 0.08,0 0,0.05 -0.08,0.05 -0.08,0zm-0.1 -0.1c0,-0.05 0.08,-0.05 0.08,0 0,0.05 -0.08,0.05 -0.08,0zm0 -0.1c0,-0.05 0.08,-0.05 0.08,0 0,0.05 -0.08,0.05 -0.08,0zm0 0.2c0,-0.05 0.08,-0.05 0.08,0 0,0.05 -0.08,0.05 -0.08,0zm0.26 -0.09c0,-0 0,-0.01 0.01,-0.02 0,-0.01 0.01,-0.03 0.03,-0.03 0.03,0 0.03,0.04 0.03,0.05 0.01,0 0.03,-0 0.05,0 0.02,0.01 0.02,0.04 0,0.05l-0.02 0.01c-0,0 -0,0 -0,0 -0,0.01 0.02,0.04 0,0.06 -0.01,0.01 -0.03,0.01 -0.04,-0 -0,-0 -0.02,-0.01 -0.02,-0.01 -0.01,0 -0.02,0.01 -0.02,0.02 -0.01,0.01 -0.03,0.01 -0.04,-0 -0.01,-0.02 -0,-0.03 0,-0.05 0,-0 0,-0.01 0,-0.01 -0,-0 -0.01,-0.01 -0.02,-0.01 -0,-0 -0.01,-0 -0.01,-0.01 -0.01,-0.01 -0.01,-0.01 -0.01,-0.02 0,-0.02 0.02,-0.03 0.04,-0.03 0,0 0.01,0 0.02,0z"/>
 </g>
</svg>
