<?xml version="1.0" encoding="UTF-8"?>
<!DOCTYPE svg PUBLIC "-//W3C//DTD SVG 1.1//EN" "http://www.w3.org/Graphics/SVG/1.1/DTD/svg11.dtd">
<!-- Creator: CorelDRAW 2020 (64-Bit) -->
<svg xmlns="http://www.w3.org/2000/svg" xml:space="preserve" width="0.100445in" height="0.130874in" version="1.1" style="shape-rendering:geometricPrecision; text-rendering:geometricPrecision; image-rendering:optimizeQuality; fill-rule:evenodd; clip-rule:evenodd"
viewBox="0 0 0.12 0.15"
 xmlns:xlink="http://www.w3.org/1999/xlink"
 xmlns:xodm="http://www.corel.com/coreldraw/odm/2003">
 <defs>
  <style type="text/css">
   <![CDATA[
    .fil0 {fill:#ED4731}
   ]]>
  </style>
 </defs>
 <g id="Layer_x0020_1">
  <metadata id="CorelCorpID_0Corel-Layer"/>
  <path class="fil0" d="M0.01 0.04l0 0.11c0,0 -0,0.01 0,0.01l0.09 0c0,0 0,-0 0,-0l0 -0.11c0,-0 -0,-0 -0,-0 -0.01,0 -0.09,-0 -0.09,0zm0.03 -0.03l0 0.01 -0.04 0c-0,0 -0,0 -0,0l0 0.01 0.12 0c0,0 0,-0 0,-0 0,-0 0,-0.01 -0,-0.01l-0.04 0c0,-0.01 0,-0.01 -0,-0.01l-0.02 0c-0,0 -0,0 -0,0zm0.04 0.05c0,0.01 -0,0.07 0,0.07 0,0 0,0 0,0 0,-0 0,-0.06 0,-0.07 0,-0 -0,-0 -0,0zm-0.05 -0l0 0.07c0,0 -0,0.01 0,0.01 0,0 0,-0 0,-0l0 -0.07c0,-0 -0,-0 -0,-0 -0,0 -0,0 -0,0zm0.02 0l0 0.07c0,0 0,0 0,0 0,-0.01 0,-0.07 -0,-0.07 -0,-0 -0,-0 -0,-0 -0,0 -0,0 -0,0z"/>
 </g>
</svg>
