<?xml version="1.0" encoding="UTF-8"?>
<!DOCTYPE svg PUBLIC "-//W3C//DTD SVG 1.1//EN" "http://www.w3.org/Graphics/SVG/1.1/DTD/svg11.dtd">
<!-- Creator: CorelDRAW 2020 (64-Bit) -->
<svg xmlns="http://www.w3.org/2000/svg" xml:space="preserve" width="3.06426in" height="3.06336in" version="1.1" style="shape-rendering:geometricPrecision; text-rendering:geometricPrecision; image-rendering:optimizeQuality; fill-rule:evenodd; clip-rule:evenodd"
viewBox="0 0 804.15 803.91"
 xmlns:xlink="http://www.w3.org/1999/xlink"
 xmlns:xodm="http://www.corel.com/coreldraw/odm/2003">
 <defs>
  <style type="text/css">
   <![CDATA[
    .fil0 {fill:#999999}
   ]]>
  </style>
 </defs>
 <g id="Layer_x0020_1">
  <metadata id="CorelCorpID_0Corel-Layer"/>
  <path class="fil0" d="M128.06 158.86c0,-4.73 0.29,-8.03 0.59,-11.84 0.48,-6.06 -1.1,-6.04 2.07,-10.37 2.11,-2.88 2.7,-4.51 5.6,-6.84 5.82,-4.68 6.28,-3.1 13.12,-4.91 7.14,-1.89 8.59,-1.39 15.59,-2.43 7.61,-1.14 13.26,-2.88 20.87,-3.37 4.66,-0.3 6.16,-1.4 10.17,-2.27 2.57,-0.56 8.7,-0.75 11.56,-0.87 5.34,-0.23 10.2,-2.89 15.54,-3.11 7.4,-0.31 9.12,-1.35 15.63,-2.39 8.01,-1.29 13.47,-0.93 21.16,-3.08 3.64,-1.02 14.29,-1.74 21.06,-3.18 5,-1.07 11.52,-0.64 16.68,-1.97 2.2,-0.57 0.38,-0.04 2.19,-0.92 3.79,-1.83 8.76,-1.25 13.07,-1.85 4.07,-0.57 7.33,-0.54 10.78,-1.65 2.78,-0.89 7.17,-0.99 10.36,-1.45 2.1,-0.3 4,-0.4 5.47,-0.75 5,-1.18 9.82,-2.48 15.39,-2.64 4.48,-0.13 6.22,-1.2 10.21,-2.23 2.13,-0.55 3.08,-0.51 5.1,-1.12l8.42 -4.01c3.16,-2.27 7.23,-5.19 9.93,-8.11l1.49 -1.61c4.24,-5.17 7.71,-11.03 10.09,-17.26 2.67,-7.01 2.23,-22.78 0.51,-30.06 -0.59,-2.5 -1.58,-3.53 -2.32,-5.77 -2.33,-7.09 -9.47,-19.24 -16.34,-21.57 -6.16,-2.1 -50.26,-0.89 -60.66,-0.89l-244.92 0c-7.97,0 -38.5,-1.4 -44.63,1.99 -2.56,1.41 -2.74,0.99 -5.45,2.01 -3.92,1.48 -10.53,7.01 -13.2,9.8 -3.75,3.91 -7.45,8.37 -9.46,13.55 -1.08,2.8 -0.29,2.6 -1.99,5.47 -1.86,3.15 -1.73,8.73 -1.73,13.19l0 711.77c0,3.62 0.38,9.6 1.54,12.14l1.95 4.89c2.64,7.8 8.52,12.92 14.08,18.25 2.49,2.39 4.85,4.19 8.31,5.37 4.51,1.54 4.06,2.61 9.55,3.5 8.16,1.33 15.24,1.23 24.88,1.23l527.14 0c10.74,0 44.29,0.76 51.89,0.23 16.27,-1.13 35.85,-0.23 52.55,-0.23 17.61,0 35.24,-0.09 52.84,0 5.41,0.03 7.51,-0.74 11.86,-1.19 8.94,-0.93 12.18,-4.15 18.96,-7.15 2.63,-1.16 2,-1.61 3.93,-2.92 3.65,-2.47 7.18,-6.05 10.38,-9.51 1.25,-1.35 2.06,-2.23 3.17,-3.66l8.42 -17.69c0.33,-1.47 0.38,-3.41 0.71,-5.51 2.44,-15.7 1.62,-6.86 1.62,-23.87l0 -236.84c0,-11 0.81,-43.61 0.06,-51.66 -0.38,-4.09 -1.55,-13.04 -3.41,-16.48 -3.53,-6.53 -8,-13.77 -14.31,-18.01 -2.85,-1.91 -5.63,-3.73 -9.07,-4.61 -9.46,-2.41 -6.68,-4.31 -22.98,-3.09 -4.6,0.35 -15.22,4.7 -19.35,7.38l-10.26 7.77c-4.74,4.39 -10.2,9.88 -11.52,16.45 -0.74,3.69 -0.53,8.06 -1.41,12.26 -0.36,1.69 -1.11,3.32 -1.46,4.75 -0.94,3.88 -0.59,8.29 -1.19,11.86 -2.04,12.18 -2.19,7.81 -3.34,22.77 -0.29,3.84 -1.86,6.56 -2.43,10.63 -0.47,3.39 -0.45,9.18 -1.11,11.94 -0.9,3.81 -1.76,6.38 -2.4,10.66 -0.68,4.57 -0.14,8.42 -1.24,12.43 -0.95,3.45 -2,6.76 -2.11,10.95 -0.08,3.36 -0.65,8.67 -1.5,11.55 -1.62,5.47 -1.43,11.49 -2.47,17.43 -1.24,7.06 -2.45,7.07 -2.87,17.03 -0.11,2.7 -0.24,3.76 -0.69,6.15 -0.39,2.08 -0.85,2.73 -1.41,4.81 -1.18,4.42 -0.56,7.17 -1.17,11.89 -1.11,8.62 -3.33,13.03 -3.56,23.16 -0.08,3.36 -0.36,3.2 -1.25,5.59 -0.52,1.39 -0.99,3.49 -1.15,5.07 -1.66,15.99 -1.34,7.89 -3.68,16.21 -1.06,3.77 -3.91,5.68 -6.58,8.34 -0.13,0.13 -0.48,0.5 -0.62,0.63 -1.04,0.96 -0.77,0.59 -1.72,1.38 -2.03,1.69 -1.23,1.89 -4.11,2.73 -5.18,1.51 -10.16,2.95 -16.32,2.95l-486.73 0c-3.21,0 -5.47,-0.36 -8.34,-0.99l-6.96 -1.75c-4.03,-1.07 -7.28,-4.38 -10.02,-7.39 -2.23,-2.45 -5.53,-8.25 -6.16,-11.24 -0.74,-3.51 -0.85,-12.45 -0.85,-16.55l0 -479.28zm415.25 -4.97c3.3,-4.92 7.36,-8.62 11.29,-12.96l18.12 -18.56c0.19,-0.17 0.97,-0.86 0.99,-0.88l12.93 -13.18c1.5,-1.37 2.09,-2.68 3.75,-4.33 1.4,-1.4 2.59,-2.77 4.08,-4 2.95,-2.44 10.16,-9.46 11,-12.62l4.35 0c1.27,1.89 1.13,1.74 2.81,3.41 1.35,1.34 1.51,1.79 3.01,3.21l7.75 7.79c0.81,0.85 0.68,0.7 1.61,1.49l64.4 64.27c1.37,1.57 1.67,1.36 3.1,3.12 0.67,0.83 0.46,0.73 1.42,1.68l7.88 7.66c1.61,1.85 4.14,5.02 6.23,5.58l0 4.35c-1.66,0.44 -3.6,2.05 -4.71,3.37 -2.05,2.46 -2.17,1.9 -4.18,3.9 -2.05,2.05 -1.36,2.2 -3.9,4.19 -4.2,3.28 -10.59,10.01 -14.5,14.09 -0.84,0.88 -0.84,1 -1.85,1.88l-3.79 3.66c-5.49,4.06 -10.72,9.9 -15.63,14.83 -0.09,0.09 -0.22,0.23 -0.31,0.32 -0.09,0.09 -0.22,0.22 -0.31,0.31l-8.71 8.07c-2.39,2.6 -4.95,5.5 -8,7.54 -4.35,-2.3 -3.5,-2.58 -6.67,-5.76l-92.17 -92.46zm-157.89 438.25c6.7,0 8.4,-1.48 13.43,-2.73 2.51,-0.62 4.49,-0.39 6.99,-1.09 2.65,-0.75 2.98,-1.53 5.13,-2.33 2.48,-0.93 3.93,-0.49 6.23,-1.85 1.75,-1.03 0.27,-0.58 2.79,-1.56 8.02,-3.11 15.43,-7.96 22.28,-13.16 4.6,-3.49 8.1,-7.56 12.52,-11.1l23.4 -23.84c1.58,-1.56 2.72,-1.98 4.03,-3.43l7.79 -8.37c1.75,-1.77 2.61,-2.19 4.35,-3.73l14.18 -13.8c0.64,-0.64 0.92,-1.16 1.69,-2.04 1.22,-1.39 2.38,-2.41 3.72,-3.74 6.54,-6.54 12.59,-13.53 19.69,-19.47 1.86,-1.55 2.2,-2.44 3.92,-4.17l126.95 -125.43c0.92,-0.91 1.16,-0.78 2.32,-2.03 1.21,-1.31 0.39,-0.76 1.73,-2l32.04 -31.37c1.2,-1.38 2.39,-2.07 3.89,-3.57l3.63 -3.84c4.67,-4.47 9.16,-9.98 13.97,-14.01 0.97,-0.81 1.12,-0.89 1.99,-1.74 6.65,-6.52 12.9,-13.76 19.89,-19.89 1.15,-1.01 1.33,-0.92 2.34,-2.01l5.53 -5.67c4.66,-3.59 7.52,-8.54 12.08,-12.16 4.21,-3.35 7.58,-7.72 11.42,-11.59 1.69,-1.7 2.88,-2.05 4.38,-3.7l10.5 -13.13 5.27 -10.27c1.03,-3.05 1.67,-1.93 2.62,-5.46 0.81,-3 0.82,-3.62 1.96,-6.12 3.67,-8.05 3.7,-37.97 0.09,-45.45 -1.27,-2.65 -1.48,-5.82 -2.76,-8.43 -6.04,-12.42 -3.3,-7.43 -11.74,-19.96 -1.31,-1.94 -2.24,-2.78 -3.61,-4.47 -0.92,-1.15 -0.74,-0.9 -1.78,-1.94 -0.09,-0.09 -0.22,-0.22 -0.31,-0.31l-5.13 -4.79c-0.09,-0.09 -0.22,-0.21 -0.31,-0.3 -0.09,-0.09 -0.23,-0.21 -0.32,-0.3l-29.81 -29.92c-1.17,-1.01 -0.85,-0.69 -1.87,-1.86l-15.56 -15.52c-0.96,-0.95 -0.47,-0.56 -1.17,-1.32l-44.57 -44.33c-0.71,-0.68 -0.2,-0.25 -0.89,-0.97 -0.09,-0.09 -0.2,-0.24 -0.3,-0.33l-0.63 -0.62c-3.34,-3.05 -9.21,-7.83 -13.19,-9.81 -1.27,-0.64 -1.91,-0.74 -2.96,-1.39 -2.76,-1.69 -5.82,-2.37 -8.09,-3.72 -3.09,-1.84 -8.36,-2.68 -11.57,-3.97 -5.07,-2.04 -29.73,-2.46 -37.02,-0.62 -2.89,0.73 -2.99,1.48 -5.89,2.19 -2.5,0.61 -4.12,0.25 -6.45,1.63l-5.15 2.31c-2.82,1.05 -2.26,1.7 -5.16,2.93 -2.98,1.27 -2.33,0.74 -4.81,2.65 -10.18,7.82 -15.32,13.08 -24.75,22.5l-15.02 14.82c-0.37,0.37 -0.55,0.59 -0.89,0.97l-109.74 110.94c-0.09,0.09 -0.23,0.21 -0.32,0.3 -0.09,0.09 -0.23,0.22 -0.32,0.31l-14.84 15.61c-1.6,1.95 -2.87,2.29 -4.26,3.83 -0.9,1 -0.71,1.15 -1.96,2.39 -0.21,0.21 -0.98,0.87 -0.99,0.88 -0.09,0.09 -0.23,0.21 -0.32,0.3l-45.83 46.17c-0.09,0.09 -0.22,0.22 -0.31,0.31 -0.09,0.09 -0.22,0.22 -0.31,0.31l-7.08 7.22c-1.31,1.24 -0.56,0.72 -1.74,1.99 -4.98,5.37 -11.1,10.11 -15.89,15.81 -1.32,1.57 -2.47,2.63 -3.97,4.11l-7.65 7.89c-1.33,1.14 -0.84,0.87 -1.82,1.91l-6.9 6.77c-0.09,0.09 -0.22,0.22 -0.32,0.31 -0.02,0.02 -0.8,0.71 -0.99,0.88 -7.04,6.37 -12.88,13.53 -19.89,19.89 -0.83,0.75 -1.13,1.05 -1.9,1.82l-22.9 23.72c-15.69,15.82 -28.73,26.77 -41.15,45.26l-5.8 10.36c-1.25,2.07 -0.91,3.51 -2.28,5.81 -1.48,2.49 -1.47,1.87 -2.16,5.3 -1.05,5.22 -2.61,5.7 -3.46,12.08 -0.67,5.07 -2.59,8.41 -2.59,12.94l0 141.11c0,3.12 1.13,4.35 1.95,6.76 1.58,4.69 2.17,7.88 5.42,11.99 2.54,3.22 5.33,6.47 8.82,8.58l5.47 3.23c4.87,1.75 8.32,3.63 13.77,3.63l139.24 0z"/>
 </g>
</svg>
